<svg width="19" height="20" viewBox="0 0 19 20" fill="none" xmlns="http://www.w3.org/2000/svg">
<path d="M13.5 2.49993C13.7189 2.28106 13.9787 2.10744 14.2647 1.98899C14.5506 1.87054 14.8571 1.80957 15.1667 1.80957C15.4762 1.80957 15.7827 1.87054 16.0687 1.98899C16.3546 2.10744 16.6145 2.28106 16.8333 2.49993C17.0522 2.7188 17.2258 2.97863 17.3443 3.2646C17.4627 3.55057 17.5237 3.85706 17.5237 4.16659C17.5237 4.47612 17.4627 4.78262 17.3443 5.06859C17.2258 5.35455 17.0522 5.61439 16.8333 5.83326L5.58333 17.0833L1 18.3333L2.25 13.7499L13.5 2.49993Z" stroke="#2E7BE6" stroke-width="2" stroke-linecap="round" stroke-linejoin="round"/>
</svg>
