<svg width="161" height="52" viewBox="0 0 161 52" fill="none" xmlns="http://www.w3.org/2000/svg">
<g clip-path="url(#clip0_164_33428)">
<path d="M32.9872 0.839844C32.3134 0.839844 31.768 1.38531 31.768 2.05913V27.001C31.768 28.6909 31.1262 30.2952 29.9711 31.5252C28.816 32.7445 27.2545 33.4718 25.586 33.5787C23.6287 33.6964 21.8532 33.1081 20.5912 31.9102C19.9815 31.3327 19.5109 30.6375 19.19 29.8246C18.8371 28.9583 18.666 27.985 18.6767 26.9261C18.6767 26.9048 18.6767 26.8834 18.6767 26.862L18.6018 25.0437C18.6125 23.6854 18.3772 22.4127 17.9066 21.2575C17.4467 20.1345 16.7836 19.1505 15.9172 18.327C15.0295 17.4927 13.9813 16.8617 12.7941 16.4553C11.6176 16.0488 10.3449 15.8884 9.02933 15.9633C6.7298 16.1023 4.6014 17.097 3.01846 18.7762C1.41414 20.4554 0.537109 22.6586 0.537109 24.9689V49.9108C0.537109 50.5846 1.08258 51.1301 1.7564 51.1301C2.43021 51.1301 2.97568 50.5846 2.97568 49.9108V24.9689C2.97568 23.279 3.61741 21.6747 4.77252 20.4447C5.92764 19.2254 7.48918 18.4981 9.15768 18.3911C11.147 18.2735 12.9439 18.8831 14.2273 20.0917C15.5001 21.3003 16.1632 23.0116 16.1525 25.0437C16.1525 25.0651 16.1525 25.0865 16.1525 25.1079L16.2274 26.9261C16.2167 28.2952 16.452 29.5786 16.9226 30.7337C17.3825 31.8675 18.0456 32.8621 18.912 33.675C20.666 35.3328 23.0832 36.1671 25.725 36.0066C28.0245 35.8676 30.1529 34.8729 31.7359 33.1937C33.3295 31.5145 34.2065 29.3112 34.2065 26.9903V2.05913C34.2065 1.38531 33.6611 0.839844 32.9872 0.839844Z" fill="url(#paint0_linear_164_33428)"/>
<path d="M54.9878 18.0908H54.9344C54.2819 18.0908 53.7472 18.6255 53.7472 19.278V26.9787C53.7472 28.7542 53.084 30.4227 51.8968 31.6527C50.7524 32.8399 49.2123 33.5458 47.5652 33.642C45.5758 33.7597 43.779 33.1607 42.4955 31.9414C41.212 30.7221 40.5382 29.0109 40.5489 26.9894C40.5489 26.9787 40.5275 21.1818 40.5168 19.2673C40.5168 18.6149 39.9821 18.0801 39.3296 18.0801C38.6772 18.0801 38.1424 18.6149 38.1424 19.2673V26.9894C38.1317 28.3478 38.367 29.6205 38.8376 30.7756C39.2976 31.8987 39.9607 32.8826 40.827 33.7062C41.7147 34.5404 42.7629 35.1715 43.9501 35.5779C44.9341 35.9095 45.9822 36.0806 47.0732 36.0806C47.2871 36.0806 47.501 36.0699 47.7149 36.0592C50.1535 35.9095 52.3888 34.8078 53.9932 32.9468C55.405 31.3104 56.1857 29.1713 56.1857 26.9359V19.2566C56.1857 18.6255 55.651 18.0908 54.9878 18.0908Z" fill="url(#paint1_linear_164_33428)"/>
<path d="M109.931 0.732422C109.257 0.732422 108.711 1.27789 108.711 1.95171V27.0006C108.711 28.6904 108.07 30.2948 106.915 31.5247C105.759 32.744 104.198 33.4713 102.529 33.5783C100.572 33.6959 98.7967 33.1077 97.5347 31.9098C96.925 31.3322 96.4544 30.637 96.1335 29.8242C95.7806 28.9578 95.6095 27.9845 95.6202 26.9257C95.6202 26.9043 95.6202 26.8829 95.6202 26.8722L95.556 24.808C95.3849 19.8774 91.3847 16.0056 86.4541 16.0056C81.3952 16.0056 77.2881 20.1127 77.2881 25.1716C77.2881 30.2306 81.3952 34.3377 86.4541 34.3377C87.1386 34.3377 87.7055 33.7815 87.7055 33.0863C87.7055 32.3911 87.1493 31.8349 86.4541 31.8349C82.7749 31.8349 79.7908 28.8402 79.7908 25.1716C79.7908 21.5031 82.7856 18.5083 86.4541 18.5083C89.8981 18.5083 92.8073 21.1929 93.096 24.6155V24.6262C93.1067 24.7759 93.1067 24.9149 93.1067 25.054C93.1067 25.0754 93.1067 25.0968 93.1067 25.1181L93.1816 26.9364C93.1709 28.3054 93.4062 29.5889 93.8768 30.744C94.3367 31.8777 94.9998 32.8724 95.8662 33.6852C97.4812 35.2147 99.6524 36.0382 102.048 36.0382C102.262 36.0382 102.476 36.0275 102.69 36.0168C104.989 35.8778 107.118 34.8831 108.701 33.2039C110.294 31.5247 111.171 29.3215 111.171 27.0006V1.95171C111.15 1.27789 110.605 0.732422 109.931 0.732422Z" fill="url(#paint2_linear_164_33428)"/>
<path d="M75.1808 20.8723C74.9669 21.2787 74.5712 21.514 74.1112 21.514H74.0899C73.6941 21.514 73.3198 21.3215 73.0845 20.99C72.8599 20.6584 72.5925 20.3482 72.3037 20.0808C71.0202 18.8616 69.2234 18.2626 67.234 18.3803C65.5869 18.4765 64.0468 19.1824 62.9024 20.3696C62.4104 20.883 62.1537 21.2574 62.1537 21.8884V34.5412C62.1537 35.1187 61.6831 35.6 61.0948 35.6C60.5066 35.6 60.036 35.1294 60.036 34.5412C60.036 34.5412 59.9825 25.5356 60.036 21.7387C60.036 21.5033 60.0467 21.3001 60.0467 21.1076C60.1002 20.4445 60.3141 19.3856 61.0627 18.6477C61.7152 17.9952 62.528 17.4711 63.0949 17.1396C64.3035 16.4444 65.6725 16.0273 67.0736 15.9417C68.3892 15.8668 69.6619 16.0273 70.8384 16.423C72.0256 16.8294 73.0845 17.4605 73.9615 18.3054C74.3786 18.7011 74.753 19.1396 75.0738 19.6102C75.3519 19.9846 75.384 20.4766 75.1808 20.8723Z" fill="url(#paint3_linear_164_33428)"/>
<path d="M10.5475 47.417C11.0822 47.417 11.3817 47.7379 11.3817 48.1764C11.3817 48.4652 11.2106 48.7005 10.986 48.7753C11.2534 48.8395 11.4673 49.0962 11.4673 49.4384C11.4673 49.8983 11.1357 50.2192 10.6223 50.2192H9.56348V47.417H10.5475ZM10.4619 48.5828C10.7079 48.5828 10.8469 48.4438 10.8469 48.2299C10.8469 48.0159 10.7079 47.8769 10.4512 47.8769H10.0769V48.5721H10.4619V48.5828ZM10.5154 49.77C10.7721 49.77 10.9325 49.631 10.9325 49.4064C10.9325 49.1817 10.7935 49.032 10.5261 49.032H10.0876V49.77H10.5154Z" fill="#0D67BF"/>
<path d="M11.9697 47.418H12.6008L13.2104 48.5303L13.82 47.418H14.419L13.4564 49.0437V50.2202H12.9216V49.0437L11.9697 47.418Z" fill="#0D67BF"/>
<path d="M17.0397 49.1721V50.2309H16.5049V47.4287H17.5316C18.0771 47.4287 18.4301 47.7924 18.4301 48.3057C18.4301 48.8191 18.0664 49.1828 17.5316 49.1828H17.0397V49.1721ZM17.4675 48.7015C17.7349 48.7015 17.8953 48.541 17.8953 48.3057C17.8953 48.0597 17.7349 47.8993 17.4675 47.8993H17.0504V48.7015H17.4675Z" fill="#0D67BF"/>
<path d="M19.2217 50.2309V47.4287H19.7672V50.2309H19.2217Z" fill="#0D67BF"/>
<path d="M22.5587 50.2309L21.318 48.2416V50.2309H20.7832V47.4287H21.4463L22.5907 49.2897V47.4287H23.1255V50.2309H22.5587Z" fill="#0D67BF"/>
<path d="M24.1309 50.2309V47.4287H25.8421V47.9421H24.6549V48.5838H25.7245V49.0758H24.6549V49.7282H25.8421V50.2416H24.1309V50.2309Z" fill="#0D67BF"/>
<path d="M28.0991 50.2309V47.4287H28.6339V49.7068H29.8532V50.2309H28.0991Z" fill="#0D67BF"/>
<path d="M32.313 49.5892H31.2006L30.976 50.2309H30.4092L31.4573 47.4287H32.0777L33.1258 50.2309H32.5483L32.313 49.5892ZM31.3825 49.0865H32.1419L31.7675 48.0277L31.3825 49.0865Z" fill="#0D67BF"/>
<path d="M34.8478 47.418C35.3825 47.418 35.682 47.7388 35.682 48.1773C35.682 48.4661 35.5109 48.7014 35.2863 48.7763C35.5537 48.8405 35.7676 49.0972 35.7676 49.4394C35.7676 49.8993 35.436 50.2202 34.9226 50.2202H33.8638V47.418H34.8478ZM34.7622 48.5838C35.0082 48.5838 35.1472 48.4447 35.1472 48.2308C35.1472 48.0169 35.0082 47.8779 34.7515 47.8779H34.3772V48.5731H34.7622V48.5838ZM34.8157 49.771C35.0724 49.771 35.2328 49.6319 35.2328 49.4073C35.2328 49.1827 35.0938 49.033 34.8264 49.033H34.3878V49.771H34.8157Z" fill="#0D67BF"/>
<path d="M37.9713 48.2413C37.9392 48.0916 37.8215 47.8456 37.4686 47.8456C37.2119 47.8456 37.0407 48.0167 37.0407 48.1985C37.0407 48.3482 37.137 48.4766 37.3402 48.5194L37.7253 48.5942C38.2279 48.6905 38.4953 49.0221 38.4953 49.4178C38.4953 49.8456 38.1424 50.2841 37.5114 50.2841C36.7841 50.2841 36.4632 49.8028 36.4204 49.4071L36.9124 49.2681C36.9338 49.5461 37.1263 49.7921 37.5114 49.7921C37.8001 49.7921 37.9606 49.6424 37.9606 49.4499C37.9606 49.2894 37.8429 49.1611 37.629 49.1183L37.244 49.0435C36.8054 48.9472 36.5274 48.6584 36.5274 48.2413C36.5274 47.7386 36.9659 47.3643 37.4793 47.3643C38.1424 47.3643 38.3991 47.7707 38.4632 48.0915L37.9713 48.2413Z" fill="#0D67BF"/>
<path d="M129.335 21.5356L136.347 11H138.861L130.618 23.2802L139.118 35.9024H136.587L129.335 25.0247L122.049 35.9024H119.552L128.069 23.2802L119.808 11H122.322L129.335 21.5356Z" fill="#2E7BE6"/>
<path d="M160.104 12.7958H151.569V35.9024H149.465V12.7958H140.948V11H160.104V12.7958Z" fill="#2E7BE6"/>
</g>
<defs>
<linearGradient id="paint0_linear_164_33428" x1="12.7445" y1="25.9684" x2="165.537" y2="26.5471" gradientUnits="userSpaceOnUse">
<stop stop-color="#2E7BE6"/>
<stop offset="0.5327" stop-color="#4CF0C7"/>
<stop offset="0.5831" stop-color="#66EEB1"/>
<stop offset="0.6714" stop-color="#8DEC90"/>
<stop offset="0.7588" stop-color="#ABEA76"/>
<stop offset="0.8439" stop-color="#C1E864"/>
<stop offset="0.9255" stop-color="#CFE759"/>
<stop offset="1" stop-color="#D3E755"/>
</linearGradient>
<linearGradient id="paint1_linear_164_33428" x1="12.7407" y1="26.9521" x2="165.533" y2="27.5309" gradientUnits="userSpaceOnUse">
<stop stop-color="#2E7BE6"/>
<stop offset="0.5327" stop-color="#4CF0C7"/>
<stop offset="0.5831" stop-color="#66EEB1"/>
<stop offset="0.6714" stop-color="#8DEC90"/>
<stop offset="0.7588" stop-color="#ABEA76"/>
<stop offset="0.8439" stop-color="#C1E864"/>
<stop offset="0.9255" stop-color="#CFE759"/>
<stop offset="1" stop-color="#D3E755"/>
</linearGradient>
<linearGradient id="paint2_linear_164_33428" x1="12.7746" y1="18.0281" x2="165.567" y2="18.6068" gradientUnits="userSpaceOnUse">
<stop stop-color="#2E7BE6"/>
<stop offset="0.5327" stop-color="#4CF0C7"/>
<stop offset="0.5831" stop-color="#66EEB1"/>
<stop offset="0.6714" stop-color="#8DEC90"/>
<stop offset="0.7588" stop-color="#ABEA76"/>
<stop offset="0.8439" stop-color="#C1E864"/>
<stop offset="0.9255" stop-color="#CFE759"/>
<stop offset="1" stop-color="#D3E755"/>
</linearGradient>
<linearGradient id="paint3_linear_164_33428" x1="12.7458" y1="25.573" x2="165.539" y2="26.1517" gradientUnits="userSpaceOnUse">
<stop stop-color="#2E7BE6"/>
<stop offset="0.5327" stop-color="#4CF0C7"/>
<stop offset="0.5831" stop-color="#66EEB1"/>
<stop offset="0.6714" stop-color="#8DEC90"/>
<stop offset="0.7588" stop-color="#ABEA76"/>
<stop offset="0.8439" stop-color="#C1E864"/>
<stop offset="0.9255" stop-color="#CFE759"/>
<stop offset="1" stop-color="#D3E755"/>
</linearGradient>
<clipPath id="clip0_164_33428">
<rect width="161" height="52" fill="white"/>
</clipPath>
</defs>
</svg>
